<?xml version="1.0" encoding="UTF-8" standalone="no"?>
<!-- Created with Inkscape (http://www.inkscape.org/) -->

<svg
   width="150"
   height="150"
   viewBox="0 0 39.687499 39.6875"
   version="1.1"
   id="svg1"
   inkscape:version="1.4 (86a8ad7, 2024-10-11)"
   sodipodi:docname="moreBackground.svg"
   xmlns:inkscape="http://www.inkscape.org/namespaces/inkscape"
   xmlns:sodipodi="http://sodipodi.sourceforge.net/DTD/sodipodi-0.dtd"
   xmlns="http://www.w3.org/2000/svg"
   xmlns:svg="http://www.w3.org/2000/svg">
  <sodipodi:namedview
     id="namedview1"
     pagecolor="#ffffff"
     bordercolor="#000000"
     borderopacity="0.25"
     inkscape:showpageshadow="2"
     inkscape:pageopacity="0.0"
     inkscape:pagecheckerboard="0"
     inkscape:deskcolor="#d1d1d1"
     inkscape:document-units="mm"
     inkscape:zoom="4.0668163"
     inkscape:cx="78.193844"
     inkscape:cy="75.366079"
     inkscape:window-width="1920"
     inkscape:window-height="1009"
     inkscape:window-x="1912"
     inkscape:window-y="-8"
     inkscape:window-maximized="1"
     inkscape:current-layer="layer1" />
  <defs
     id="defs1" />
  <g
     inkscape:label="图层 1"
     inkscape:groupmode="layer"
     id="layer1">
    <rect
       style="fill:#3c3c3c;stroke:#3c3c3c;stroke-width:0.118315;fill-opacity:1;stroke-opacity:1"
       id="rect1"
       width="14.003853"
       height="0.44761729"
       x="12.841824"
       y="19.619942"
       ry="0.22380865" />
    <path
       id="rect1-5"
       style="fill:#3c3c3c;stroke:#3c3c3c;stroke-width:0.121799;fill-opacity:1;stroke-opacity:1"
       d="M 39.262203 30.505632 C 39.060459 30.505632 38.898401 30.668207 38.898401 30.86995 L 38.898401 38.898401 L 30.86995 38.898401 C 30.668207 38.898401 30.505632 39.060459 30.505632 39.262203 C 30.505632 39.463947 30.668207 39.626522 30.86995 39.626522 L 39.262203 39.626522 C 39.463947 39.626522 39.626522 39.463947 39.626522 39.262203 L 39.626522 30.86995 C 39.626522 30.668207 39.463947 30.505632 39.262203 30.505632 z " />
    <path
       id="rect1-5-7"
       style="fill:#3c3c3c;stroke:#3c3c3c;stroke-width:0.121799;fill-opacity:1;stroke-opacity:1"
       d="M -0.06097819 30.86995 C -0.06097819 30.668207 -0.22355342 30.505632 -0.42529704 30.505632 C -0.62704065 30.505632 -0.78909912 30.668207 -0.78909912 30.86995 L -0.78909912 38.898401 L -8.8175496 38.898401 C -9.0192933 38.898401 -9.1818685 39.060459 -9.1818685 39.262203 C -9.1818685 39.463947 -9.0192933 39.626522 -8.8175496 39.626522 L -0.42529704 39.626522 C -0.22355342 39.626522 -0.06097819 39.463947 -0.06097819 39.262203 L -0.06097819 30.86995 z "
       transform="rotate(-90)" />
    <path
       id="rect1-5-7-3"
       style="fill:#3c3c3c;stroke:#3c3c3c;stroke-width:0.121799;fill-opacity:1;stroke-opacity:1"
       d="M -0.42529704 -0.06097819 C -0.22355342 -0.06097819 -0.06097819 -0.22355342 -0.06097819 -0.42529704 L -0.06097819 -8.8175496 C -0.06097819 -9.0192933 -0.22355342 -9.1818685 -0.42529704 -9.1818685 C -0.62704065 -9.1818685 -0.78909912 -9.0192933 -0.78909912 -8.8175496 L -0.78909912 -0.78909912 L -8.8175496 -0.78909912 C -9.0192933 -0.78909912 -9.1818685 -0.62704065 -9.1818685 -0.42529704 C -9.1818685 -0.22355342 -9.0192933 -0.06097819 -8.8175496 -0.06097819 L -0.42529704 -0.06097819 z "
       transform="scale(-1)" />
    <path
       id="rect1-5-7-3-8"
       style="fill:#3c3c3c;stroke:#3c3c3c;stroke-width:0.121799;fill-opacity:1;stroke-opacity:1"
       d="M 30.505632 -0.42529704 C 30.505632 -0.22355342 30.668207 -0.06097819 30.86995 -0.06097819 L 39.262203 -0.06097819 C 39.463947 -0.06097819 39.626522 -0.22355342 39.626522 -0.42529704 L 39.626522 -8.8175496 C 39.626522 -9.0192933 39.463947 -9.1818685 39.262203 -9.1818685 C 39.060459 -9.1818685 38.898401 -9.0192933 38.898401 -8.8175496 L 38.898401 -0.78909912 L 30.86995 -0.78909912 C 30.668207 -0.78909912 30.505632 -0.62704065 30.505632 -0.42529704 z "
       transform="rotate(90)" />
    <rect
       style="fill:#3c3c3c;stroke:#3c3c3c;stroke-width:0.118315;fill-opacity:1;stroke-opacity:1"
       id="rect1-8"
       width="14.003853"
       height="0.44761729"
       x="12.841824"
       y="-20.067558"
       ry="0.22380865"
       transform="rotate(90)" />
  </g>
</svg>
