<?xml version="1.0" encoding="UTF-8" standalone="no"?>
<!-- Created with Inkscape (http://www.inkscape.org/) -->

<svg
   width="800"
   height="275"
   viewBox="0 0 211.66665 72.760416"
   version="1.1"
   id="svg1"
   inkscape:version="1.4 (86a8ad7, 2024-10-11)"
   sodipodi:docname="ssta.svg"
   xmlns:inkscape="http://www.inkscape.org/namespaces/inkscape"
   xmlns:sodipodi="http://sodipodi.sourceforge.net/DTD/sodipodi-0.dtd"
   xmlns="http://www.w3.org/2000/svg"
   xmlns:svg="http://www.w3.org/2000/svg">
  <sodipodi:namedview
     id="namedview1"
     pagecolor="#ffffff"
     bordercolor="#000000"
     borderopacity="0.25"
     inkscape:showpageshadow="2"
     inkscape:pageopacity="0.0"
     inkscape:pagecheckerboard="0"
     inkscape:deskcolor="#d1d1d1"
     inkscape:document-units="mm"
     inkscape:zoom="2.0334082"
     inkscape:cx="231.13903"
     inkscape:cy="112.8647"
     inkscape:window-width="1920"
     inkscape:window-height="1009"
     inkscape:window-x="1912"
     inkscape:window-y="-8"
     inkscape:window-maximized="1"
     inkscape:current-layer="layer1" />
  <defs
     id="defs1" />
  <g
     inkscape:label="图层 1"
     inkscape:groupmode="layer"
     id="layer1"
     style="display:inline">
    <path
       d="m 1.3658081,24.051762 c -0.063045,0 -0.116272,0.0186 -0.1596802,0.05581 -0.042375,0.03824 -0.063562,0.08578 -0.063562,0.142627 0,0.05064 0.017053,0.100769 0.05116,0.150379 0.03514,0.04961 0.076481,0.08372 0.1240234,0.102319 0.047542,0.01964 0.133842,0.02946 0.2588989,0.02946 h 0.086817 c -0.018604,-0.04548 -0.040308,-0.116272 -0.065112,-0.21239 -0.028939,-0.110588 -0.060978,-0.182935 -0.096118,-0.217041 -0.03514,-0.03411 -0.080615,-0.05116 -0.1364258,-0.05116 z"
       style="display:inline;fill:#24221c;stroke-width:0.419536"
       id="path72" />
    <path
       d="m 1.6960205,56.049809 c -0.1663981,0 -0.2924886,0.03256 -0.3782715,0.09767 -0.084749,0.06511 -0.127124,0.143661 -0.127124,0.235645 0,0.08992 0.042891,0.166915 0.1286743,0.230993 0.085783,0.06408 0.2123902,0.09612 0.3798218,0.09612 0.1632975,0 0.2878377,-0.03256 0.3736206,-0.09767 0.085783,-0.06511 0.1286743,-0.143144 0.1286743,-0.234094 0,-0.08992 -0.042891,-0.167432 -0.1286743,-0.232544 -0.085783,-0.06408 -0.2113566,-0.09612 -0.3767212,-0.09612 z"
       style="display:inline;fill:#24221c;stroke-width:0.419536"
       id="path71" />
    <path
       d="m 1.3658081,52.992631 c -0.063045,0 -0.116272,0.0186 -0.1596802,0.05581 -0.042375,0.03824 -0.063562,0.08578 -0.063562,0.142627 0,0.05064 0.017053,0.100769 0.05116,0.150378 0.03514,0.04961 0.076481,0.08372 0.1240234,0.102319 0.047542,0.01964 0.133842,0.02946 0.2588989,0.02946 h 0.086817 c -0.018604,-0.04548 -0.040308,-0.116272 -0.065112,-0.21239 -0.028939,-0.110588 -0.060978,-0.182935 -0.096118,-0.217041 -0.03514,-0.03411 -0.080615,-0.05116 -0.1364258,-0.05116 z"
       style="display:inline;fill:#24221c;stroke-width:0.419536"
       id="path70" />
    <path
       d="m 1.6960205,49.248674 c -0.1663981,0 -0.2924886,0.03256 -0.3782715,0.09767 -0.084749,0.06511 -0.127124,0.14366 -0.127124,0.235644 0,0.08992 0.042891,0.166915 0.1286743,0.230994 0.085783,0.06408 0.2123902,0.09612 0.3798218,0.09612 0.1632975,0 0.2878377,-0.03256 0.3736206,-0.09767 0.085783,-0.06511 0.1286743,-0.143144 0.1286743,-0.234094 0,-0.08992 -0.042891,-0.167432 -0.1286743,-0.232544 -0.085783,-0.06408 -0.2113566,-0.09612 -0.3767212,-0.09612 z"
       style="display:inline;fill:#24221c;stroke-width:0.419536"
       id="path69" />
    <path
       d="m 1.730127,40.808879 c -0.1756999,0 -0.3038575,0.02791 -0.3844727,0.08372 -0.080615,0.05684 -0.1209229,0.125057 -0.1209229,0.204639 0,0.08578 0.040824,0.159163 0.1224732,0.220142 0.081649,0.06098 0.2056722,0.09147 0.3720703,0.09147 0.1715658,0 0.298173,-0.02946 0.3798218,-0.08837 0.082682,-0.05788 0.1240234,-0.129708 0.1240234,-0.21549 0,-0.08475 -0.040308,-0.155547 -0.1209228,-0.212391 -0.080615,-0.05581 -0.2046387,-0.08372 -0.3720703,-0.08372 z"
       style="display:inline;fill:#24221c;stroke-width:0.419536"
       id="path68" />
    <path
       d="m 1.6960205,39.215177 c -0.1663981,0 -0.2924886,0.03256 -0.3782715,0.09767 -0.084749,0.06511 -0.127124,0.14366 -0.127124,0.235644 0,0.08992 0.042891,0.166915 0.1286743,0.230994 0.085783,0.06408 0.2123902,0.09612 0.3798218,0.09612 0.1632975,0 0.2878377,-0.03256 0.3736206,-0.09767 0.085783,-0.06511 0.1286743,-0.143144 0.1286743,-0.234094 0,-0.08992 -0.042891,-0.167432 -0.1286743,-0.232544 -0.085783,-0.06408 -0.2113566,-0.09612 -0.3767212,-0.09612 z"
       style="display:inline;fill:#24221c;stroke-width:0.419536"
       id="path67" />
    <path
       d="m 1.6960205,36.90059 c -0.1663981,0 -0.2924886,0.03256 -0.3782715,0.09767 -0.084749,0.06511 -0.127124,0.143661 -0.127124,0.235645 0,0.08992 0.042891,0.166915 0.1286743,0.230994 0.085783,0.06408 0.2123902,0.09612 0.3798218,0.09612 0.1632975,0 0.2878377,-0.03256 0.3736206,-0.09767 0.085783,-0.06511 0.1286743,-0.143143 0.1286743,-0.234094 0,-0.08992 -0.042891,-0.167432 -0.1286743,-0.232544 -0.085783,-0.06408 -0.2113566,-0.09612 -0.3767212,-0.09612 z"
       style="display:inline;fill:#24221c;stroke-width:0.419536"
       id="path66" />
    <path
       d="m 1.7316772,27.11204 c -0.1488281,0 -0.2599324,0.0124 -0.3333129,0.03721 -0.072347,0.02584 -0.1271241,0.06201 -0.1643311,0.108521 -0.036174,0.04754 -0.05426,0.100769 -0.05426,0.15968 0,0.07855 0.042375,0.146761 0.1271241,0.204639 0.084749,0.05788 0.2123901,0.08682 0.3829223,0.08682 0.1891358,0 0.3250448,-0.02842 0.4077271,-0.08527 0.083716,-0.05581 0.1255737,-0.127124 0.1255737,-0.213941 0,-0.08268 -0.040824,-0.152962 -0.1224731,-0.210839 -0.081649,-0.05788 -0.2046387,-0.08682 -0.3689698,-0.08682 z"
       style="display:inline;fill:#24221c;stroke-width:0.419536"
       id="path65" />
    <path
       d="m 1.7316772,5.2203532 c -0.1488281,0 -0.2599324,0.012402 -0.3333129,0.037207 -0.072347,0.025838 -0.1271241,0.062012 -0.1643311,0.1085205 -0.036174,0.047542 -0.05426,0.1007691 -0.05426,0.1596802 0,0.078548 0.042375,0.1467611 0.1271241,0.2046387 0.084749,0.057878 0.2123901,0.086816 0.3829223,0.086816 0.1891358,0 0.3250448,-0.028422 0.4077271,-0.085266 0.083716,-0.055811 0.1255737,-0.1271241 0.1255737,-0.2139405 0,-0.082682 -0.040824,-0.1529622 -0.1224731,-0.2108398 C 2.0189982,5.249292 1.8960083,5.2203532 1.7316772,5.2203532 Z"
       style="display:inline;fill:#24221c;stroke-width:0.419536"
       id="path64" />
    <path
       d="m 97.537199,38.460701 -2.194181,16.644463 h 4.401281 z"
       style="display:inline;fill:#24221c;stroke-width:0.419536"
       id="path63" />
    <path
       d="m 102.02013,72.760417 -0.98134,-7.643461 h -7.031091 l -0.967383,7.643461 z"
       style="display:inline;fill:#24221c;stroke-width:0.419536"
       id="path62" />
    <path
       d="M 119.0625,72.760417 V 0 H 0 v 72.760417 h 38.383704 c -3.397567,0 -5.75033,-1.466126 -7.058484,-4.398181 -1.308154,-2.932054 -2.048449,-6.657879 -2.221053,-11.17813 l 5.873026,-0.825272 c 0.127182,2.137956 0.386068,3.767159 0.776697,4.88704 0.635909,1.812174 1.544443,2.71818 2.725415,2.71818 0.881188,0 1.557978,-0.458326 2.030367,-1.374593 0.481474,-0.936628 0.72192,-2.015322 0.72192,-3.237011 0,-1.160605 -0.226876,-2.199305 -0.681096,-3.115573 -0.45422,-0.916267 -1.508203,-1.781247 -3.161564,-2.595707 -2.707153,-1.36422 -4.637142,-3.17675 -5.790861,-5.436877 -1.162804,-2.260126 -1.744596,-5.141224 -1.744596,-8.6434 0,-2.300849 0.295248,-4.469397 0.885734,-6.505546 0.599571,-2.056511 1.494534,-3.664941 2.684591,-4.825546 1.199141,-1.180967 2.83875,-1.771468 4.919079,-1.771468 2.552717,0 4.496794,1.069083 5.832202,3.20704 1.344492,2.117595 2.143941,5.49753 2.398304,10.139949 l -5.81825,0.763778 c -0.154434,-2.015789 -0.481693,-3.481914 -0.981335,-4.398181 -0.490558,-0.916267 -1.1717,-1.374077 -2.043803,-1.374077 -0.717668,0 -1.258231,0.345889 -1.621607,1.03818 -0.363377,0.671929 -0.545186,1.4964 -0.545186,2.473751 0,0.712653 0.1498,1.354308 0.449585,1.92443 0.290701,0.590483 0.981062,1.139957 2.071191,1.648995 2.698068,1.303136 4.628575,2.626959 5.791378,3.970817 1.171889,1.323498 2.02127,2.972436 2.548165,4.947502 0.53598,1.975065 0.804085,4.184123 0.804085,6.627502 0,2.870971 -0.3544,5.518101 -1.062984,7.941118 -0.708583,2.423018 -1.698544,4.265415 -2.970361,5.527828 -1.271817,1.242051 -2.875581,1.863452 -4.810559,1.863452 h 20.153808 c -3.397568,0 -5.75033,-1.466126 -7.058484,-4.398181 -1.308155,-2.932054 -2.04845,-6.657879 -2.221053,-11.17813 l 5.873027,-0.825272 c 0.127182,2.137956 0.386067,3.767159 0.776697,4.88704 0.635908,1.812174 1.544442,2.71818 2.725415,2.71818 0.881187,0 1.557978,-0.458326 2.030367,-1.374593 0.481473,-0.936628 0.721919,-2.015322 0.721919,-3.237011 0,-1.160605 -0.226874,-2.199305 -0.681095,-3.115573 -0.45422,-0.916267 -1.508202,-1.781247 -3.161564,-2.595707 -2.707152,-1.36422 -4.637658,-3.17675 -5.791378,-5.436877 -1.162803,-2.260126 -1.744079,-5.141224 -1.744079,-8.6434 0,-2.300849 0.295248,-4.469397 0.885734,-6.505546 0.599571,-2.056511 1.494533,-3.664941 2.68459,-4.825546 1.199141,-1.180967 2.838751,-1.771468 4.91908,-1.771468 2.552718,0 4.496795,1.069083 5.832202,3.20704 1.344492,2.117595 2.143939,5.49753 2.398303,10.139949 L 60.908427,40.5691 c -0.154435,-2.015789 -0.481177,-3.481914 -0.980819,-4.398181 -0.490558,-0.916267 -1.1717,-1.374077 -2.043803,-1.374077 -0.717668,0 -1.25823,0.345889 -1.621606,1.03818 -0.363376,0.671929 -0.545186,1.4964 -0.545186,2.473751 0,0.712653 0.149798,1.354308 0.449584,1.92443 0.290701,0.590483 0.981064,1.139957 2.071192,1.648995 2.698068,1.303136 4.628574,2.626959 5.791378,3.970817 1.171888,1.323498 2.021269,2.972436 2.548165,4.947502 0.53598,1.975065 0.804085,4.184123 0.804085,6.627502 0,2.870971 -0.3544,5.518101 -1.062984,7.941118 -0.708584,2.423018 -1.698546,4.265415 -2.970362,5.527828 -1.271817,1.242051 -2.875581,1.863452 -4.810559,1.863452 H 75.379895 V 37.891744 H 69.084672 V 26.458333 h 18.763713 v 11.433411 h -6.295223 v 34.868673 h 5.177978 l 7.508069,-46.302084 h 6.731891 l 7.50807,46.302084 z M 1.6123047,0.64853923 1.6557129,1.0159587 c -0.2904216,0.041341 -0.4356323,0.1767334 -0.4356323,0.4061767 0,0.1136882 0.029456,0.2030884 0.088367,0.2682007 0.059945,0.065112 0.1338419,0.097669 0.2216919,0.097669 0.051676,0 0.095601,-0.011369 0.1317749,-0.034107 0.036174,-0.022738 0.065629,-0.057361 0.088367,-0.1038696 C 1.7740519,1.6035197 1.813326,1.4908651 1.868103,1.3120646 1.9166789,1.1518677 1.9693888,1.0345622 2.0262329,0.96014811 2.083077,0.88573405 2.157491,0.82630615 2.2494751,0.78186442 c 0.093018,-0.0434082 0.1927531,-0.0651123 0.2992065,-0.0651123 0.1240235,0 0.2356446,0.0279053 0.3348633,0.0837158 0.099219,0.0568441 0.1741496,0.13487549 0.2247925,0.23409426 0.050643,0.099219 0.075964,0.2216919 0.075964,0.3674194 0,0.2191081 -0.059428,0.3901571 -0.1782837,0.513147 C 2.8871623,2.0381185 2.7171468,2.1032308 2.4959717,2.1104655 L 2.4758179,1.7337443 C 2.5977742,1.7172078 2.6830404,1.6815511 2.7316162,1.6267741 2.7801921,1.5719971 2.80448,1.4939657 2.80448,1.3926799 c 0,-0.1012859 -0.021187,-0.1793173 -0.063562,-0.2340943 -0.042375,-0.054777 -0.095085,-0.082166 -0.1581299,-0.082166 -0.062012,0 -0.1142049,0.024805 -0.1565796,0.074414 -0.042375,0.049609 -0.088884,0.1638143 -0.1395264,0.3426148 -0.054777,0.1891357 -0.1126546,0.3255615 -0.1736328,0.4092773 -0.059945,0.084749 -0.1379761,0.1493449 -0.2340942,0.1937867 -0.095085,0.044442 -0.2108399,0.066663 -0.3472656,0.066663 -0.197404,0 -0.3632854,-0.060978 -0.4976441,-0.1829346 C 0.89968669,1.859318 0.83250732,1.6696655 0.83250732,1.4112834 c 0,-0.45681969 0.25993248,-0.71106774 0.77979738,-0.76274417 z M 2.1719604,2.3290568 h 0.3472657 v 0.1643311 h 0.3271118 l 0.254248,0.3581176 H 2.5192261 v 0.243396 H 2.1719604 V 2.8515055 H 1.5084351 c -0.1436605,0 -0.2268596,0.00362 -0.2495972,0.010852 -0.041341,0.014469 -0.062012,0.043925 -0.062012,0.088367 0,0.033073 0.013953,0.080615 0.041858,0.1426269 l -0.33796389,0.031006 c -0.0434082,-0.082682 -0.0651123,-0.1762166 -0.0651123,-0.280603 0,-0.090951 0.0217041,-0.1638143 0.0651123,-0.2185913 0.0434082,-0.054777 0.10593669,-0.091467 0.18758549,-0.1100708 0.059945,-0.014469 0.181901,-0.021704 0.3658691,-0.021704 H 2.1719604 Z M 1.4774292,3.3351969 h 1.0417969 v 0.3581177 h -0.756543 c -0.2160075,0 -0.3534668,0.00517 -0.4123779,0.015503 -0.057878,0.011369 -0.1028361,0.035657 -0.1348755,0.072864 -0.032039,0.037207 -0.048059,0.082166 -0.048059,0.1348755 0,0.059945 0.020671,0.1152384 0.062012,0.1658814 0.042375,0.050643 0.096118,0.083716 0.1612305,0.099219 0.066146,0.016536 0.2108398,0.024805 0.434082,0.024805 H 2.5192261 V 4.563029 H 0.87281494 V 4.2312663 H 1.1193115 C 1.0304281,4.1816569 0.96066488,4.1165446 0.91002197,4.0359294 0.8604126,3.9553141 0.83560791,3.8710815 0.83560791,3.7832316 c 0,-0.088884 0.0232544,-0.1684652 0.0697632,-0.2387451 0.0465088,-0.07028 0.11265461,-0.1229899 0.19843751,-0.1581299 0.085783,-0.034106 0.2103231,-0.05116 0.3736206,-0.05116 z M 1.7053223,4.854484 c 0.2811198,0 0.4929931,0.054777 0.6356201,0.1643311 0.1436605,0.109554 0.2154907,0.2444295 0.2154907,0.4046265 0,0.075448 -0.01912,0.1457275 -0.057361,0.2108398 -0.038241,0.066146 -0.095601,0.1266073 -0.1720826,0.1813843 H 3.1455444 V 6.1737834 H 0.87281494 V 5.8404704 H 1.1146606 C 1.0216431,5.7856934 0.95187988,5.7210978 0.90537109,5.6466838 0.85886231,5.5722697 0.83560791,5.4957886 0.83560791,5.4172404 c 0,-0.1508952 0.0749308,-0.2826701 0.22479249,-0.3953247 C 1.2112956,4.9102946 1.4262695,4.854484 1.7053223,4.854484 Z m -0.018604,1.5673462 c 0.2749187,0 0.4950603,0.064596 0.6604249,0.1937867 0.1395263,0.109554 0.2092895,0.2511474 0.2092895,0.4247802 0,0.1932699 -0.071314,0.3446818 -0.2139404,0.4542359 C 2.1791952,7.6207235 1.938383,7.6837687 1.6200562,7.6837687 l -0.049609,-0.00155 v -0.894519 c -0.1302246,0.00207 -0.2309937,0.031006 -0.3023072,0.086816 -0.071313,0.056844 -0.1069702,0.125057 -0.1069702,0.2046387 0,0.1147216 0.078548,0.1912028 0.2356446,0.2294433 L 1.3239502,7.6636149 C 1.1585856,7.6160726 1.0355957,7.5421753 0.95498047,7.441923 0.87539876,7.3416707 0.83560791,7.2197144 0.83560791,7.0760539 c 0,-0.1994711 0.0666626,-0.3534668 0.19998779,-0.4619873 C 1.190625,6.485909 1.407666,6.4218302 1.6867187,6.4218302 Z m 0.1503785,0.3720704 c 0.1219563,-0.00103 0.217041,0.024805 0.2852539,0.077515 0.067179,0.051676 0.100769,0.1152384 0.100769,0.190686 0,0.071314 -0.032556,0.1328085 -0.097668,0.1844849 -0.064079,0.051676 -0.160197,0.079065 -0.2883545,0.082166 z M 0.87281494,7.9705729 H 2.5192261 V 8.3023356 H 2.2773804 c 0.093017,0.058911 0.1627807,0.125057 0.2092895,0.1984375 0.046509,0.074414 0.069763,0.1565796 0.069763,0.2464966 0,0.1043864 -0.027388,0.1922363 -0.082165,0.2635498 -0.053743,0.072347 -0.1235067,0.1219564 -0.2092896,0.1488281 -0.084749,0.027905 -0.2077392,0.041858 -0.3689697,0.041858 H 0.87281494 V 8.8433879 H 1.7130737 c 0.1684652,0 0.2806031,-0.00672 0.3364136,-0.020154 0.055811,-0.013436 0.098702,-0.038757 0.1286743,-0.075964 0.029972,-0.036174 0.044958,-0.077515 0.044958,-0.1240234 0,-0.059945 -0.019637,-0.114205 -0.058911,-0.1627808 C 2.1259684,8.4118896 2.0727417,8.3777832 2.0045288,8.3581462 1.9363159,8.3385091 1.8076416,8.3286906 1.6185059,8.3286906 H 0.87281494 Z M 2.1719604,9.415446 h 0.3472657 v 0.164331 h 0.3271118 l 0.254248,0.3581177 H 2.5192261 V 10.181291 H 2.1719604 V 9.9378947 H 1.5084351 c -0.1436605,0 -0.2268596,0.00362 -0.2495972,0.010852 -0.041341,0.014469 -0.062012,0.043925 -0.062012,0.088366 0,0.03307 0.013953,0.08062 0.041858,0.142627 l -0.33796389,0.03101 c -0.0434082,-0.08268 -0.0651123,-0.176216 -0.0651123,-0.2806028 0,-0.09095 0.0217041,-0.1638143 0.0651123,-0.2185913 0.0434082,-0.054777 0.10593669,-0.091467 0.18758549,-0.1100708 0.059945,-0.014469 0.181901,-0.021704 0.3658691,-0.021704 h 0.7177856 z m -0.8294067,0.889868 0.066663,0.358118 c -0.1725993,0.03101 -0.2588989,0.127124 -0.2588989,0.288354 0,0.08578 0.016536,0.149862 0.049609,0.192237 0.033073,0.04237 0.075964,0.06356 0.1286743,0.06356 0.036174,0 0.064596,-0.0093 0.085266,-0.02791 0.020671,-0.01964 0.038757,-0.05839 0.05426,-0.116272 0.077515,-0.293522 0.151412,-0.480074 0.2216919,-0.559655 0.08785,-0.09922 0.2082561,-0.148828 0.3612183,-0.148828 0.1529622,0 0.2754354,0.04857 0.3674194,0.145727 0.091984,0.09715 0.1379761,0.238228 0.1379761,0.42323 0,0.176733 -0.034623,0.311092 -0.1038696,0.403076 -0.068213,0.09198 -0.1788005,0.15658 -0.3317627,0.193787 L 2.0448364,11.18433 c 0.1322917,-0.02997 0.1984375,-0.114721 0.1984375,-0.254248 0,-0.08785 -0.012919,-0.150378 -0.038757,-0.187585 -0.024805,-0.03721 -0.057361,-0.05581 -0.097668,-0.05581 -0.036174,0 -0.066146,0.01705 -0.089917,0.05116 -0.024805,0.03411 -0.062012,0.140043 -0.1116211,0.31781 -0.055811,0.199471 -0.1235067,0.334863 -0.2030884,0.406177 -0.079582,0.07028 -0.1855184,0.10542 -0.3178101,0.10542 -0.1591634,0 -0.2904215,-0.05478 -0.39377439,-0.164331 -0.10335287,-0.108521 -0.1550293,-0.258899 -0.1550293,-0.451136 0,-0.174666 0.0428914,-0.317293 0.12867432,-0.427881 0.0868164,-0.110587 0.21290687,-0.183451 0.37827147,-0.218591 z m 1.4185181,1.502234 h 0.3844726 v 0.389124 H 2.7610718 l -0.42323,-0.05891 v -0.263549 z m -1.1487671,1.32085 0.043408,0.367419 c -0.2904216,0.04134 -0.4356323,0.176733 -0.4356323,0.406177 0,0.113688 0.029456,0.203088 0.088367,0.2682 0.059945,0.06511 0.1338419,0.09767 0.2216919,0.09767 0.051676,0 0.095601,-0.01137 0.1317749,-0.03411 0.036174,-0.02274 0.065629,-0.05736 0.088367,-0.10387 0.023771,-0.04651 0.063045,-0.159164 0.1178222,-0.337964 0.048576,-0.160197 0.1012858,-0.277502 0.1581299,-0.351916 0.056844,-0.07442 0.1312581,-0.133842 0.2232422,-0.178284 0.093018,-0.04341 0.1927531,-0.06511 0.2992065,-0.06511 0.1240235,0 0.2356446,0.0279 0.3348633,0.08371 0.099219,0.05684 0.1741496,0.134876 0.2247925,0.234095 0.050643,0.09922 0.075964,0.221691 0.075964,0.367419 0,0.219108 -0.059428,0.390157 -0.1782837,0.513147 -0.1188558,0.12299 -0.2888713,0.188102 -0.5100464,0.195337 l -0.020154,-0.376721 c 0.1219563,-0.01654 0.2072225,-0.05219 0.2557983,-0.106971 0.048576,-0.05478 0.072864,-0.132808 0.072864,-0.234094 0,-0.101286 -0.021187,-0.179317 -0.063562,-0.234094 -0.042375,-0.05478 -0.095085,-0.08217 -0.1581299,-0.08217 -0.062012,0 -0.1142049,0.0248 -0.1565796,0.07442 -0.042375,0.04961 -0.088884,0.163814 -0.1395264,0.342614 -0.054777,0.189136 -0.1126546,0.325562 -0.1736328,0.409278 -0.059945,0.08475 -0.1379761,0.149345 -0.2340942,0.193786 -0.095085,0.04444 -0.2108399,0.06666 -0.3472656,0.06666 -0.197404,0 -0.3632854,-0.06098 -0.4976441,-0.182935 -0.13435871,-0.120923 -0.20153808,-0.310575 -0.20153808,-0.568957 0,-0.45682 0.25993248,-0.711068 0.77979738,-0.762744 z m 0.079065,1.75028 c 0.2821533,0 0.4966105,0.05994 0.6433716,0.179834 0.1477946,0.120923 0.2216919,0.279053 0.2216919,0.47439 0,0.15813 -0.041858,0.286804 -0.1255737,0.386023 -0.083716,0.100252 -0.2165243,0.172082 -0.3984253,0.215491 l -0.077515,-0.351917 c 0.1725993,-0.02584 0.258899,-0.10697 0.258899,-0.243396 0,-0.08785 -0.037207,-0.158646 -0.1116211,-0.21239 -0.074414,-0.05374 -0.1999878,-0.08061 -0.3767212,-0.08061 -0.1953369,0 -0.333313,0.02687 -0.4139282,0.08061 -0.080615,0.05374 -0.1209229,0.125574 -0.1209229,0.215491 0,0.06718 0.022738,0.122473 0.068213,0.165881 0.046509,0.04341 0.1281575,0.07441 0.2449463,0.09302 l -0.072864,0.351916 c -0.396875,-0.07235 -0.59531249,-0.280603 -0.59531249,-0.624768 0,-0.220141 0.0837158,-0.383439 0.25114749,-0.489892 0.1674316,-0.106454 0.3689697,-0.159681 0.6046142,-0.159681 z M 0.87281494,16.405717 H 2.5192261 v 0.358118 H 0.87281494 Z m 1.86965336,0 h 0.4030761 v 0.358118 H 2.7424683 Z m -1.0557496,0.620117 c 0.2749187,0 0.4950603,0.0646 0.6604249,0.193787 0.1395263,0.109554 0.2092895,0.251147 0.2092895,0.42478 0,0.19327 -0.071314,0.344682 -0.2139404,0.454236 -0.1632975,0.12609 -0.4041097,0.189136 -0.7224365,0.189136 l -0.049609,-0.0016 v -0.894519 c -0.1302246,0.0021 -0.2309937,0.03101 -0.3023072,0.08682 -0.071313,0.05684 -0.1069702,0.125057 -0.1069702,0.204638 0,0.114722 0.078548,0.191203 0.2356446,0.229444 l -0.072864,0.355017 C 1.1585856,18.220076 1.0355957,18.146179 0.95498047,18.045927 0.87539876,17.945675 0.83560791,17.823718 0.83560791,17.680058 c 0,-0.199471 0.0666626,-0.353467 0.19998779,-0.461988 0.1550293,-0.128157 0.3720703,-0.192236 0.651123,-0.192236 z m 0.1503785,0.37207 c 0.1219563,-0.001 0.217041,0.02481 0.2852539,0.07751 0.067179,0.05168 0.100769,0.115239 0.100769,0.190686 0,0.07131 -0.032556,0.132809 -0.097668,0.184485 -0.064079,0.05168 -0.160197,0.07906 -0.2883545,0.08217 z M 0.87281494,18.574577 H 2.5192261 V 18.90634 H 2.2773804 c 0.093017,0.05891 0.1627807,0.125056 0.2092895,0.198437 0.046509,0.07441 0.069763,0.15658 0.069763,0.246497 0,0.104386 -0.027388,0.192236 -0.082165,0.263549 -0.053743,0.07235 -0.1235067,0.121957 -0.2092896,0.148829 -0.084749,0.02791 -0.2077392,0.04186 -0.3689697,0.04186 H 0.87281494 V 19.447392 H 1.7130737 c 0.1684652,0 0.2806031,-0.0067 0.3364136,-0.02015 0.055811,-0.01344 0.098702,-0.03876 0.1286743,-0.07596 0.029972,-0.03617 0.044958,-0.07752 0.044958,-0.124024 0,-0.05994 -0.019637,-0.114205 -0.058911,-0.162781 -0.038241,-0.04857 -0.091467,-0.08268 -0.1596802,-0.102319 -0.068213,-0.01964 -0.1968872,-0.02946 -0.3860229,-0.02946 H 0.87281494 Z m 0.81855466,1.514636 c 0.2821533,0 0.4966105,0.05994 0.6433716,0.179834 0.1477946,0.120923 0.2216919,0.279053 0.2216919,0.47439 0,0.15813 -0.041858,0.286804 -0.1255737,0.386023 -0.083716,0.100252 -0.2165243,0.172082 -0.3984253,0.21549 l -0.077515,-0.351916 c 0.1725993,-0.02584 0.258899,-0.10697 0.258899,-0.243396 0,-0.08785 -0.037207,-0.158647 -0.1116211,-0.21239 -0.074414,-0.05374 -0.1999878,-0.08062 -0.3767212,-0.08062 -0.1953369,0 -0.333313,0.02687 -0.4139282,0.08062 -0.080615,0.05374 -0.1209229,0.125573 -0.1209229,0.21549 0,0.06718 0.022738,0.122474 0.068213,0.165882 0.046509,0.04341 0.1281575,0.07441 0.2449463,0.09302 l -0.072864,0.351917 c -0.396875,-0.07235 -0.59531249,-0.280603 -0.59531249,-0.624768 0,-0.220142 0.0837158,-0.383439 0.25114749,-0.489893 0.1674316,-0.106453 0.3689697,-0.15968 0.6046142,-0.15968 z m -0.00465,1.423169 c 0.2749187,0 0.4950603,0.0646 0.6604249,0.193787 0.1395263,0.109554 0.2092895,0.251147 0.2092895,0.42478 0,0.19327 -0.071314,0.344682 -0.2139404,0.454236 -0.1632975,0.12609 -0.4041097,0.189135 -0.7224365,0.189135 l -0.049609,-0.0015 v -0.894519 c -0.1302246,0.0021 -0.2309937,0.03101 -0.3023072,0.08682 -0.071313,0.05684 -0.1069702,0.125057 -0.1069702,0.204638 0,0.114722 0.078548,0.191203 0.2356446,0.229444 l -0.072864,0.355017 C 1.1585856,22.706624 1.0355957,22.632727 0.95498047,22.532475 0.87539876,22.432222 0.83560791,22.310266 0.83560791,22.166606 c 0,-0.199471 0.0666626,-0.353467 0.19998779,-0.461988 0.1550293,-0.128157 0.3720703,-0.192236 0.651123,-0.192236 z m 0.1503785,0.37207 c 0.1219563,-0.001 0.217041,0.02481 0.2852539,0.07752 0.067179,0.05168 0.100769,0.115238 0.100769,0.190686 0,0.07131 -0.032556,0.132808 -0.097668,0.184485 -0.064079,0.05168 -0.160197,0.07906 -0.2883545,0.08216 z m -0.5162476,1.809192 c 0.093018,0 0.1741496,0.01705 0.243396,0.05116 0.069246,0.03411 0.1245402,0.08216 0.1658814,0.144177 0.041341,0.06201 0.078031,0.161231 0.1100708,0.297656 0.03824,0.165365 0.073897,0.280603 0.1069702,0.345716 0.09095,0 0.1503784,-0.0067 0.1782837,-0.02015 0.028939,-0.0124 0.052193,-0.03617 0.069763,-0.07131 0.018604,-0.03411 0.027905,-0.08268 0.027905,-0.145727 0,-0.06408 -0.014469,-0.114722 -0.043408,-0.151929 -0.028939,-0.03617 -0.083199,-0.06563 -0.1627807,-0.08837 l 0.071313,-0.324011 c 0.1663981,0.03927 0.2857707,0.10387 0.3581177,0.193787 0.07338,0.09095 0.1100708,0.221175 0.1100708,0.390674 0,0.150895 -0.021187,0.266133 -0.063562,0.345715 -0.042375,0.07958 -0.1002523,0.136426 -0.1736328,0.170532 -0.072347,0.03411 -0.2046387,0.05116 -0.396875,0.05116 l -0.5084961,-0.0031 c -0.142627,0 -0.2490804,0.0057 -0.3193604,0.01705 -0.069246,0.01137 -0.14314368,0.03256 -0.22169186,0.06356 v -0.353467 l 0.17983396,-0.04651 c -0.072347,-0.06098 -0.12660723,-0.126607 -0.16278074,-0.196887 -0.0361735,-0.06925 -0.0542603,-0.143144 -0.0542603,-0.221692 0,-0.131258 0.043925,-0.238745 0.1317749,-0.322461 0.0888835,-0.08372 0.20670569,-0.125574 0.35346679,-0.125574 z M 0.87281494,25.233085 H 2.5192261 v 0.331763 H 2.2773804 c 0.093017,0.05891 0.1627807,0.125057 0.2092895,0.198437 0.046509,0.07441 0.069763,0.15658 0.069763,0.246497 0,0.104386 -0.027388,0.192236 -0.082165,0.26355 -0.053743,0.07235 -0.1235067,0.121956 -0.2092896,0.148828 -0.084749,0.0279 -0.2077392,0.04186 -0.3689697,0.04186 H 0.87281494 V 26.1059 H 1.7130737 c 0.1684652,0 0.2806031,-0.0067 0.3364136,-0.02015 0.055811,-0.01344 0.098702,-0.03876 0.1286743,-0.07596 0.029972,-0.03617 0.044958,-0.07752 0.044958,-0.124024 0,-0.05994 -0.019637,-0.114204 -0.058911,-0.16278 -0.038241,-0.04858 -0.091467,-0.08268 -0.1596802,-0.10232 -0.068213,-0.01964 -0.1968872,-0.02945 -0.3860229,-0.02945 H 0.87281494 Z m 0.83250736,1.513086 c 0.2811198,0 0.4929931,0.05478 0.6356201,0.164331 0.1436605,0.109554 0.2154907,0.24443 0.2154907,0.404627 0,0.07545 -0.01912,0.145727 -0.057361,0.210839 -0.038241,0.06615 -0.095601,0.126608 -0.1720826,0.181385 H 3.1455444 V 28.06547 H 0.87281494 V 27.732157 H 1.1146606 c -0.093017,-0.05478 -0.16278072,-0.119372 -0.20928951,-0.193786 -0.0465088,-0.07441 -0.0697632,-0.150895 -0.0697632,-0.229444 0,-0.150895 0.0749308,-0.28267 0.22479249,-0.395324 0.1508952,-0.111621 0.3658691,-0.167432 0.6449219,-0.167432 z m 1.0557495,2.263428 h 0.3844726 v 1.48053 H 2.7610718 V 29.938224 H 0.87281494 V 29.563053 H 2.7610718 Z m -1.0743531,1.42782 c 0.2749187,0 0.4950603,0.0646 0.6604249,0.193786 0.1395263,0.109554 0.2092895,0.251148 0.2092895,0.424781 0,0.193269 -0.071314,0.344681 -0.2139404,0.454235 -0.1632975,0.126091 -0.4041097,0.189136 -0.7224365,0.189136 l -0.049609,-0.0015 v -0.894519 c -0.1302246,0.0021 -0.2309937,0.03101 -0.3023072,0.08682 -0.071313,0.05684 -0.1069702,0.125057 -0.1069702,0.204639 0,0.114722 0.078548,0.191203 0.2356446,0.229443 l -0.072864,0.355017 C 1.1585856,31.631661 1.0355957,31.557764 0.95498047,31.457511 0.87539876,31.357259 0.83560791,31.235303 0.83560791,31.091642 c 0,-0.199471 0.0666626,-0.353467 0.19998779,-0.461987 0.1550293,-0.128158 0.3720703,-0.192236 0.651123,-0.192236 z m 0.1503785,0.37207 c 0.1219563,-0.001 0.217041,0.02481 0.2852539,0.07752 0.067179,0.05168 0.100769,0.115238 0.100769,0.190686 0,0.07131 -0.032556,0.132808 -0.097668,0.184484 -0.064079,0.05168 -0.160197,0.07906 -0.2883545,0.08217 z m -0.1457276,1.100708 c 0.2821533,0 0.4966105,0.05994 0.6433716,0.179834 0.1477946,0.120923 0.2216919,0.279053 0.2216919,0.47439 0,0.158129 -0.041858,0.286804 -0.1255737,0.386023 -0.083716,0.100252 -0.2165243,0.172082 -0.3984253,0.21549 l -0.077515,-0.351916 c 0.1725993,-0.02584 0.258899,-0.10697 0.258899,-0.243396 0,-0.08785 -0.037207,-0.158647 -0.1116211,-0.21239 -0.074414,-0.05374 -0.1999878,-0.08062 -0.3767212,-0.08062 -0.1953369,0 -0.333313,0.02687 -0.4139282,0.08062 -0.080615,0.05374 -0.1209229,0.125573 -0.1209229,0.21549 0,0.06718 0.022738,0.122473 0.068213,0.165882 0.046509,0.04341 0.1281575,0.07441 0.2449463,0.09302 l -0.072864,0.351917 c -0.396875,-0.07235 -0.59531249,-0.280603 -0.59531249,-0.624768 0,-0.220142 0.0837158,-0.383439 0.25114749,-0.489893 0.1674316,-0.106453 0.3689697,-0.15968 0.6046142,-0.15968 z M 0.87281494,33.435685 H 3.1455444 v 0.358118 H 2.3099365 c 0.082682,0.05684 0.1441773,0.119372 0.1844849,0.187585 0.041341,0.06925 0.062012,0.144178 0.062012,0.224793 0,0.107487 -0.028422,0.197404 -0.085266,0.269751 -0.056844,0.07235 -0.1374593,0.124023 -0.2418457,0.155029 -0.076481,0.02274 -0.2067057,0.03411 -0.3906738,0.03411 H 0.87281494 V 34.3085 H 1.7425293 c 0.2015381,0 0.3276286,-0.01292 0.3782715,-0.03876 0.068213,-0.03617 0.1023193,-0.09767 0.1023193,-0.184485 0,-0.09198 -0.037207,-0.163814 -0.1116211,-0.215491 -0.07338,-0.05064 -0.2113566,-0.07596 -0.4139282,-0.07596 H 0.87281494 Z m 0,1.589051 H 2.5192261 v 0.331762 H 2.2773804 c 0.093017,0.05891 0.1627807,0.125057 0.2092895,0.198438 0.046509,0.07441 0.069763,0.156579 0.069763,0.246496 0,0.104387 -0.027388,0.192237 -0.082165,0.26355 -0.053743,0.07235 -0.1235067,0.121956 -0.2092896,0.148828 -0.084749,0.0279 -0.2077392,0.04186 -0.3689697,0.04186 H 0.87281494 V 35.89755 H 1.7130737 c 0.1684652,0 0.2806031,-0.0067 0.3364136,-0.02015 0.055811,-0.01344 0.098702,-0.03876 0.1286743,-0.07597 0.029972,-0.03617 0.044958,-0.07751 0.044958,-0.124023 0,-0.05994 -0.019637,-0.114205 -0.058911,-0.162781 -0.038241,-0.04858 -0.091467,-0.08268 -0.1596802,-0.102319 -0.068213,-0.01964 -0.1968872,-0.02946 -0.3860229,-0.02946 H 0.87281494 Z m 0.84645996,1.509985 c 0.1612305,0 0.3079915,0.03204 0.4402832,0.09612 0.1322917,0.06408 0.2315104,0.147795 0.2976563,0.251147 0.066146,0.103353 0.099219,0.219625 0.099219,0.348816 0,0.217041 -0.085266,0.387574 -0.2557983,0.511597 -0.1694987,0.124024 -0.3679362,0.186035 -0.5953125,0.186035 -0.1694987,0 -0.322461,-0.03256 -0.4588868,-0.09767 C 1.1100098,37.766687 1.0071737,37.681938 0.93792725,37.576518 0.86971436,37.472131 0.83560791,37.35741 0.83560791,37.232353 c 0,-0.200505 0.0764811,-0.366903 0.22944339,-0.499195 0.1529622,-0.132291 0.3710368,-0.198437 0.6542236,-0.198437 z M 0.87281494,38.209037 H 3.1455444 v 0.358118 H 0.87281494 Z m 0.84645996,0.640271 c 0.1612305,0 0.3079915,0.03204 0.4402832,0.09612 0.1322917,0.06408 0.2315104,0.147795 0.2976563,0.251148 0.066146,0.103353 0.099219,0.219625 0.099219,0.348816 0,0.217041 -0.085266,0.387573 -0.2557983,0.511596 -0.1694987,0.124024 -0.3679362,0.186036 -0.5953125,0.186036 -0.1694987,0 -0.322461,-0.03256 -0.4588868,-0.09767 C 1.1100098,40.081274 1.0071737,39.996525 0.93792725,39.891105 0.86971436,39.786719 0.83560791,39.671997 0.83560791,39.54694 c 0,-0.200504 0.0764811,-0.366903 0.22944339,-0.499194 0.1529622,-0.132292 0.3710368,-0.198438 0.6542236,-0.198438 z m -0.013953,1.593701 c 0.2811198,0 0.4929931,0.05529 0.6356201,0.165882 0.1436605,0.111621 0.2154907,0.246496 0.2154907,0.404626 0,0.08372 -0.022221,0.15968 -0.066663,0.227893 -0.044442,0.06925 -0.1116211,0.130742 -0.2015381,0.184485 h 0.2309937 v 0.334863 H 1.0417969 c -0.23667808,0 -0.40824384,-0.0217 -0.51469729,-0.06511 -0.10645345,-0.04341 -0.18655192,-0.110587 -0.24029541,-0.201538 -0.054777,-0.08992 -0.0821655,-0.214974 -0.0821655,-0.375171 0,-0.147794 0.0196371,-0.266133 0.0589111,-0.355017 0.0392741,-0.08888 0.0981852,-0.157096 0.1767334,-0.204639 0.0775147,-0.04651 0.16743165,-0.06976 0.26975098,-0.06976 h 0.0542603 l -0.0604614,0.409278 c -0.0599447,0.0062 -0.10231934,0.0248 -0.12712403,0.05581 -0.0258382,0.03204 -0.0387573,0.08217 -0.0387573,0.150379 0,0.07855 0.0129191,0.14211 0.0387573,0.190686 0.0186035,0.03411 0.0496094,0.06046 0.0930176,0.07906 0.0434082,0.0186 0.11988933,0.02791 0.22944336,0.02791 H 1.1394653 c -0.088883,-0.05374 -0.15554603,-0.114205 -0.19998776,-0.181384 -0.0444417,-0.06718 -0.0666626,-0.141594 -0.0666626,-0.223243 0,-0.149861 0.0676961,-0.275952 0.20308836,-0.378271 0.1550293,-0.117822 0.3648356,-0.176734 0.629419,-0.176734 z m 0.8139038,1.500684 v 0.381372 l -1.1689209,0.320911 1.1689209,0.31626 v 0.368969 l -1.58439944,-0.47594 -0.3085083,-0.09147 C 0.51056315,42.72349 0.4258138,42.683183 0.37207031,42.642875 c -0.0537435,-0.03927 -0.0950846,-0.08992 -0.12402344,-0.151929 -0.0289388,-0.06098 -0.0434082,-0.136425 -0.0434082,-0.226342 0,-0.06925 0.008785,-0.136943 0.026355,-0.203089 l 0.34106446,-0.03101 c -0.0134359,0.05581 -0.0201538,0.105937 -0.0201538,0.150379 0,0.06821 0.0227376,0.124023 0.0682129,0.167431 0.0454753,0.04444 0.12815755,0.08062 0.24804687,0.108521 z m -1.64641116,2.060339 2.27272946,0.725537 v 0.398426 L 0.87281494,45.873686 V 45.464408 L 1.3890625,45.301628 V 44.557487 L 0.87281494,44.404008 Z m 0.89916996,0.668177 0.8433593,0.252697 -0.8433593,0.255799 z m -0.4294312,1.27279 0.066663,0.358118 c -0.1725993,0.03101 -0.2588989,0.127124 -0.2588989,0.288354 0,0.08578 0.016536,0.149862 0.049609,0.192237 0.033073,0.04237 0.075964,0.06356 0.1286743,0.06356 0.036174,0 0.064596,-0.0093 0.085266,-0.02791 0.020671,-0.01964 0.038757,-0.05839 0.05426,-0.116272 0.077515,-0.293522 0.151412,-0.480074 0.2216919,-0.559655 0.08785,-0.09922 0.2082561,-0.148828 0.3612183,-0.148828 0.1529622,0 0.2754354,0.04857 0.3674194,0.145727 0.091984,0.09715 0.1379761,0.238228 0.1379761,0.42323 0,0.176733 -0.034623,0.311092 -0.1038696,0.403076 -0.068213,0.09198 -0.1788005,0.15658 -0.3317627,0.193787 l -0.075964,-0.336414 c 0.1322917,-0.02997 0.1984375,-0.114721 0.1984375,-0.254248 0,-0.08785 -0.012919,-0.150378 -0.038757,-0.187585 -0.024805,-0.03721 -0.057361,-0.05581 -0.097668,-0.05581 -0.036174,0 -0.066146,0.01705 -0.089917,0.05116 -0.024805,0.03411 -0.062012,0.140043 -0.1116211,0.31781 -0.055811,0.199471 -0.1235067,0.334863 -0.2030884,0.406177 -0.079582,0.07028 -0.1855184,0.10542 -0.3178101,0.10542 -0.1591634,0 -0.2904215,-0.05478 -0.39377439,-0.164331 -0.10335287,-0.108521 -0.1550293,-0.258899 -0.1550293,-0.451136 0,-0.174666 0.0428914,-0.317293 0.12867432,-0.427881 0.0868164,-0.110587 0.21290687,-0.183451 0.37827147,-0.218591 z m 0,1.447974 0.066663,0.358117 c -0.1725993,0.03101 -0.2588989,0.127125 -0.2588989,0.288355 0,0.08578 0.016536,0.149862 0.049609,0.192236 0.033073,0.04237 0.075964,0.06356 0.1286743,0.06356 0.036174,0 0.064596,-0.0093 0.085266,-0.0279 0.020671,-0.01964 0.038757,-0.05839 0.05426,-0.116272 0.077515,-0.293522 0.151412,-0.480074 0.2216919,-0.559656 0.08785,-0.09922 0.2082561,-0.148828 0.3612183,-0.148828 0.1529622,0 0.2754354,0.04858 0.3674194,0.145728 0.091984,0.09715 0.1379761,0.238228 0.1379761,0.42323 0,0.176733 -0.034623,0.311092 -0.1038696,0.403076 -0.068213,0.09198 -0.1788005,0.156579 -0.3317627,0.193787 l -0.075964,-0.336414 c 0.1322917,-0.02997 0.1984375,-0.114722 0.1984375,-0.254248 0,-0.08785 -0.012919,-0.150379 -0.038757,-0.187586 -0.024805,-0.03721 -0.057361,-0.05581 -0.097668,-0.05581 -0.036174,0 -0.066146,0.01705 -0.089917,0.05116 -0.024805,0.03411 -0.062012,0.140043 -0.1116211,0.31781 -0.055811,0.199471 -0.1235067,0.334863 -0.2030884,0.406176 -0.079582,0.07028 -0.1855184,0.10542 -0.3178101,0.10542 -0.1591634,0 -0.2904215,-0.05478 -0.39377439,-0.164331 -0.10335287,-0.10852 -0.1550293,-0.258899 -0.1550293,-0.451135 0,-0.174666 0.0428914,-0.317293 0.12867432,-0.427881 0.0868164,-0.110587 0.21290687,-0.183451 0.37827147,-0.218591 z m 0.3767212,1.489831 c 0.1612305,0 0.3079915,0.03204 0.4402832,0.09612 0.1322917,0.06408 0.2315104,0.147794 0.2976563,0.251147 0.066146,0.103353 0.099219,0.219625 0.099219,0.348816 0,0.217041 -0.085266,0.387573 -0.2557983,0.511597 -0.1694987,0.124023 -0.3679362,0.186035 -0.5953125,0.186035 -0.1694987,0 -0.322461,-0.03256 -0.4588868,-0.09767 -0.1364257,-0.06408 -0.2392618,-0.148828 -0.30850825,-0.254248 -0.0682129,-0.104386 -0.10231934,-0.219108 -0.10231934,-0.344165 0,-0.200504 0.0764811,-0.366902 0.22944339,-0.499194 0.1529622,-0.132292 0.3710368,-0.198438 0.6542236,-0.198438 z m -0.027905,1.595252 c 0.2821533,0 0.4966105,0.05994 0.6433716,0.179834 0.1477946,0.120923 0.2216919,0.279053 0.2216919,0.474389 0,0.15813 -0.041858,0.286805 -0.1255737,0.386023 -0.083716,0.100253 -0.2165243,0.172083 -0.3984253,0.215491 l -0.077515,-0.351916 c 0.1725993,-0.02584 0.258899,-0.106971 0.258899,-0.243396 0,-0.08785 -0.037207,-0.158647 -0.1116211,-0.212391 -0.074414,-0.05374 -0.1999878,-0.08062 -0.3767212,-0.08062 -0.1953369,0 -0.333313,0.02687 -0.4139282,0.08062 -0.080615,0.05374 -0.1209229,0.125574 -0.1209229,0.215491 0,0.06718 0.022738,0.122473 0.068213,0.165882 0.046509,0.04341 0.1281575,0.07441 0.2449463,0.09302 l -0.072864,0.351917 c -0.396875,-0.07235 -0.59531249,-0.280603 -0.59531249,-0.624768 0,-0.220142 0.0837158,-0.38344 0.25114749,-0.489893 0.1674316,-0.106453 0.3689697,-0.15968 0.6046142,-0.15968 z M 0.87281494,52.005094 H 2.5192261 v 0.358118 H 0.87281494 Z m 1.86965336,0 h 0.4030761 v 0.358118 H 2.7424683 Z m -1.4216187,0.629419 c 0.093018,0 0.1741496,0.01705 0.243396,0.05116 0.069246,0.03411 0.1245402,0.08217 0.1658814,0.144177 0.041341,0.06201 0.078031,0.161231 0.1100708,0.297657 0.03824,0.165364 0.073897,0.280603 0.1069702,0.345715 0.09095,0 0.1503784,-0.0067 0.1782837,-0.02015 0.028939,-0.0124 0.052193,-0.03617 0.069763,-0.07131 0.018604,-0.03411 0.027905,-0.08268 0.027905,-0.145728 0,-0.06408 -0.014469,-0.114722 -0.043408,-0.151929 -0.028939,-0.03617 -0.083199,-0.06563 -0.1627807,-0.08837 l 0.071313,-0.324012 c 0.1663981,0.03927 0.2857707,0.10387 0.3581177,0.193787 0.07338,0.09095 0.1100708,0.221175 0.1100708,0.390674 0,0.150895 -0.021187,0.266133 -0.063562,0.345715 -0.042375,0.07958 -0.1002523,0.136426 -0.1736328,0.170532 -0.072347,0.03411 -0.2046387,0.05116 -0.396875,0.05116 l -0.5084961,-0.0031 c -0.142627,0 -0.2490804,0.0057 -0.3193604,0.01705 -0.069246,0.01137 -0.14314368,0.03256 -0.22169186,0.06356 v -0.353467 l 0.17983396,-0.04651 c -0.072347,-0.06098 -0.12660723,-0.126607 -0.16278074,-0.196887 -0.0361735,-0.06925 -0.0542603,-0.143144 -0.0542603,-0.221692 0,-0.131258 0.043925,-0.238745 0.1317749,-0.322461 0.0888835,-0.08372 0.20670569,-0.125574 0.35346679,-0.125574 z m 0.8511108,1.393714 h 0.3472657 v 0.164331 h 0.3271118 l 0.254248,0.358117 H 2.5192261 v 0.243396 H 2.1719604 V 54.550675 H 1.5084351 c -0.1436605,0 -0.2268596,0.0036 -0.2495972,0.01085 -0.041341,0.01447 -0.062012,0.04392 -0.062012,0.08837 0,0.03307 0.013953,0.08061 0.041858,0.142627 l -0.33796389,0.03101 c -0.0434082,-0.08268 -0.0651123,-0.176217 -0.0651123,-0.280603 0,-0.09095 0.0217041,-0.163814 0.0651123,-0.218591 0.0434082,-0.05478 0.10593669,-0.09147 0.18758549,-0.110071 0.059945,-0.01447 0.181901,-0.0217 0.3658691,-0.0217 H 2.1719604 Z M 0.87281494,55.043669 H 2.5192261 v 0.358117 H 0.87281494 Z m 1.86965336,0 h 0.4030761 v 0.358117 H 2.7424683 Z M 1.7192749,55.68394 c 0.1612305,0 0.3079915,0.03204 0.4402832,0.09612 0.1322917,0.06408 0.2315104,0.147794 0.2976563,0.251147 0.066146,0.103353 0.099219,0.219625 0.099219,0.348816 0,0.217041 -0.085266,0.387573 -0.2557983,0.511597 -0.1694987,0.124023 -0.3679362,0.186035 -0.5953125,0.186035 -0.1694987,0 -0.322461,-0.03256 -0.4588868,-0.09767 C 1.1100098,56.915906 1.0071737,56.831156 0.93792725,56.725736 0.86971436,56.62135 0.83560791,56.506628 0.83560791,56.381571 c 0,-0.200504 0.0764811,-0.366902 0.22944339,-0.499194 C 1.2180135,55.750085 1.4360881,55.68394 1.7192749,55.68394 Z M 0.87281494,57.355155 H 2.5192261 v 0.331763 H 2.2773804 c 0.093017,0.05891 0.1627807,0.125057 0.2092895,0.198438 0.046509,0.07441 0.069763,0.156579 0.069763,0.246496 0,0.104387 -0.027388,0.192237 -0.082165,0.26355 -0.053743,0.07235 -0.1235067,0.121956 -0.2092896,0.148828 -0.084749,0.02791 -0.2077392,0.04186 -0.3689697,0.04186 H 0.87281494 V 58.22797 H 1.7130737 c 0.1684652,0 0.2806031,-0.0067 0.3364136,-0.02015 0.055811,-0.01344 0.098702,-0.03876 0.1286743,-0.07596 0.029972,-0.03617 0.044958,-0.07751 0.044958,-0.124023 0,-0.05994 -0.019637,-0.114205 -0.058911,-0.162781 -0.038241,-0.04858 -0.091467,-0.08268 -0.1596802,-0.102319 -0.068213,-0.01964 -0.1968872,-0.02946 -0.3860229,-0.02946 H 0.87281494 Z"
       style="display:inline;fill:#24221c;stroke-width:0.419536"
       id="path61" />
  </g>
</svg>
